<svg width="1440" height="1732" viewBox="0 0 1440 1732" fill="none" xmlns="http://www.w3.org/2000/svg">
<mask id="mask0_203_139166" style="mask-type:alpha" maskUnits="userSpaceOnUse" x="-199" y="0" width="1845" height="1732">
<rect x="-199" width="1845" height="1732" fill="url(#paint0_linear_203_139166)"/>
</mask>
<g mask="url(#mask0_203_139166)">
<mask id="mask1_203_139166" style="mask-type:alpha" maskUnits="userSpaceOnUse" x="-69" y="102" width="1585" height="1196">
<line x1="-69" y1="1257.63" x2="1516" y2="1257.63" stroke="white"/>
<line x1="-69" y1="1177.9" x2="1516" y2="1177.9" stroke="white"/>
<line x1="-69" y1="1098.17" x2="1516" y2="1098.17" stroke="white"/>
<line x1="-69" y1="1018.43" x2="1516" y2="1018.43" stroke="white"/>
<line x1="-69" y1="938.699" x2="1516" y2="938.699" stroke="white"/>
<line x1="-69" y1="858.967" x2="1516" y2="858.967" stroke="white"/>
<line x1="-69" y1="779.232" x2="1516" y2="779.232" stroke="white"/>
<line x1="-69" y1="699.5" x2="1516" y2="699.5" stroke="white"/>
<line x1="-69" y1="619.766" x2="1516" y2="619.766" stroke="white"/>
<line x1="-69" y1="540.033" x2="1516" y2="540.033" stroke="white"/>
<line x1="-69" y1="460.301" x2="1516" y2="460.301" stroke="white"/>
<line x1="-69" y1="380.566" x2="1516" y2="380.566" stroke="white"/>
<line x1="-69" y1="300.834" x2="1516" y2="300.834" stroke="white"/>
<line x1="-69" y1="221.1" x2="1516" y2="221.1" stroke="white"/>
<line x1="-69" y1="141.367" x2="1516" y2="141.367" stroke="white"/>
<line x1="1320.5" y1="1298" x2="1320.5" y2="102" stroke="white"/>
<line x1="1235.07" y1="1298" x2="1235.07" y2="102" stroke="white"/>
<line x1="1149.64" y1="1298" x2="1149.64" y2="102" stroke="white"/>
<line x1="1064.21" y1="1298" x2="1064.21" y2="102" stroke="white"/>
<line x1="978.786" y1="1298" x2="978.786" y2="102" stroke="white"/>
<line x1="893.357" y1="1298" x2="893.357" y2="102" stroke="white"/>
<line x1="807.929" y1="1298" x2="807.929" y2="102" stroke="white"/>
<line x1="722.5" y1="1298" x2="722.5" y2="102" stroke="white"/>
<line x1="637.071" y1="1298" x2="637.071" y2="102" stroke="white"/>
<line x1="551.643" y1="1298" x2="551.643" y2="102" stroke="white"/>
<line x1="466.214" y1="1298" x2="466.214" y2="102" stroke="white"/>
<line x1="380.786" y1="1298" x2="380.786" y2="102" stroke="white"/>
<line x1="295.357" y1="1298" x2="295.357" y2="102" stroke="white"/>
<line x1="209.929" y1="1298" x2="209.929" y2="102" stroke="white"/>
<line x1="124.5" y1="1298" x2="124.5" y2="102" stroke="white"/>
</mask>
<g mask="url(#mask1_203_139166)">
<circle cx="353" cy="796" r="422" transform="rotate(-90 353 796)" fill="url(#paint1_radial_203_139166)"/>
<circle cx="353" cy="282" r="422" transform="rotate(-90 353 282)" fill="url(#paint2_radial_203_139166)"/>
<circle cx="867" cy="796" r="422" transform="rotate(-90 867 796)" fill="url(#paint3_radial_203_139166)"/>
<circle cx="867" cy="282" r="422" transform="rotate(-90 867 282)" fill="url(#paint4_radial_203_139166)"/>
<circle cx="1381" cy="796" r="422" transform="rotate(-90 1381 796)" fill="url(#paint5_radial_203_139166)"/>
<circle cx="1381" cy="282" r="422" transform="rotate(-90 1381 282)" fill="url(#paint6_radial_203_139166)"/>
</g>
<mask id="mask2_203_139166" style="mask-type:alpha" maskUnits="userSpaceOnUse" x="-69" y="1062" width="1585" height="1196">
<line x1="-69" y1="1659.5" x2="1516" y2="1659.5" stroke="white"/>
<line x1="-69" y1="1579.77" x2="1516" y2="1579.77" stroke="white"/>
<line x1="-69" y1="1500.03" x2="1516" y2="1500.03" stroke="white"/>
<line x1="-69" y1="1420.3" x2="1516" y2="1420.3" stroke="white"/>
<line x1="-69" y1="1340.57" x2="1516" y2="1340.57" stroke="white"/>
<line x1="-69" y1="1260.83" x2="1516" y2="1260.83" stroke="white"/>
<line x1="-69" y1="1181.1" x2="1516" y2="1181.1" stroke="white"/>
<line x1="-69" y1="1101.37" x2="1516" y2="1101.37" stroke="white"/>
<line x1="1320.5" y1="2258" x2="1320.5" y2="1062" stroke="white"/>
<line x1="1235.07" y1="2258" x2="1235.07" y2="1062" stroke="white"/>
<line x1="1149.64" y1="2258" x2="1149.64" y2="1062" stroke="white"/>
<line x1="1064.21" y1="2258" x2="1064.21" y2="1062" stroke="white"/>
<line x1="978.786" y1="2258" x2="978.786" y2="1062" stroke="white"/>
<line x1="893.357" y1="2258" x2="893.357" y2="1062" stroke="white"/>
<line x1="807.929" y1="2258" x2="807.929" y2="1062" stroke="white"/>
<line x1="722.5" y1="2258" x2="722.5" y2="1062" stroke="white"/>
<line x1="637.071" y1="2258" x2="637.071" y2="1062" stroke="white"/>
<line x1="551.643" y1="2258" x2="551.643" y2="1062" stroke="white"/>
<line x1="466.214" y1="2258" x2="466.214" y2="1062" stroke="white"/>
<line x1="380.786" y1="2258" x2="380.786" y2="1062" stroke="white"/>
<line x1="295.357" y1="2258" x2="295.357" y2="1062" stroke="white"/>
<line x1="209.929" y1="2258" x2="209.929" y2="1062" stroke="white"/>
<line x1="124.5" y1="2258" x2="124.5" y2="1062" stroke="white"/>
</mask>
<g mask="url(#mask2_203_139166)">
<circle cx="353" cy="1756" r="422" transform="rotate(-90 353 1756)" fill="url(#paint7_radial_203_139166)"/>
<circle cx="353" cy="1242" r="422" transform="rotate(-90 353 1242)" fill="url(#paint8_radial_203_139166)"/>
<circle cx="867" cy="1756" r="422" transform="rotate(-90 867 1756)" fill="url(#paint9_radial_203_139166)"/>
<circle cx="867" cy="1242" r="422" transform="rotate(-90 867 1242)" fill="url(#paint10_radial_203_139166)"/>
<circle cx="1381" cy="1756" r="422" transform="rotate(-90 1381 1756)" fill="url(#paint11_radial_203_139166)"/>
<circle cx="1381" cy="1242" r="422" transform="rotate(-90 1381 1242)" fill="url(#paint12_radial_203_139166)"/>
</g>
</g>
<defs>
<linearGradient id="paint0_linear_203_139166" x1="723" y1="154.419" x2="723" y2="1630.45" gradientUnits="userSpaceOnUse">
<stop stop-color="#D9D9D9" stop-opacity="0"/>
<stop offset="0.5" stop-color="#A6A6A6"/>
<stop offset="1" stop-color="#737373" stop-opacity="0"/>
</linearGradient>
<radialGradient id="paint1_radial_203_139166" cx="0" cy="0" r="1" gradientUnits="userSpaceOnUse" gradientTransform="translate(353 796) rotate(85.2434) scale(337.663)">
<stop stop-color="#D9D9D9"/>
<stop offset="1" stop-color="#737373" stop-opacity="0"/>
</radialGradient>
<radialGradient id="paint2_radial_203_139166" cx="0" cy="0" r="1" gradientUnits="userSpaceOnUse" gradientTransform="translate(353 282) rotate(85.2434) scale(337.663)">
<stop stop-color="#D9D9D9"/>
<stop offset="1" stop-color="#737373" stop-opacity="0"/>
</radialGradient>
<radialGradient id="paint3_radial_203_139166" cx="0" cy="0" r="1" gradientUnits="userSpaceOnUse" gradientTransform="translate(867 796) rotate(85.2434) scale(337.663)">
<stop stop-color="#D9D9D9"/>
<stop offset="1" stop-color="#737373" stop-opacity="0"/>
</radialGradient>
<radialGradient id="paint4_radial_203_139166" cx="0" cy="0" r="1" gradientUnits="userSpaceOnUse" gradientTransform="translate(867 282) rotate(85.2434) scale(337.663)">
<stop stop-color="#D9D9D9"/>
<stop offset="1" stop-color="#737373" stop-opacity="0"/>
</radialGradient>
<radialGradient id="paint5_radial_203_139166" cx="0" cy="0" r="1" gradientUnits="userSpaceOnUse" gradientTransform="translate(1381 796) rotate(85.2434) scale(337.663)">
<stop stop-color="#D9D9D9"/>
<stop offset="1" stop-color="#737373" stop-opacity="0"/>
</radialGradient>
<radialGradient id="paint6_radial_203_139166" cx="0" cy="0" r="1" gradientUnits="userSpaceOnUse" gradientTransform="translate(1381 282) rotate(85.2434) scale(337.663)">
<stop stop-color="#D9D9D9"/>
<stop offset="1" stop-color="#737373" stop-opacity="0"/>
</radialGradient>
<radialGradient id="paint7_radial_203_139166" cx="0" cy="0" r="1" gradientUnits="userSpaceOnUse" gradientTransform="translate(353 1756) rotate(85.2434) scale(337.663)">
<stop stop-color="#D9D9D9"/>
<stop offset="1" stop-color="#737373" stop-opacity="0"/>
</radialGradient>
<radialGradient id="paint8_radial_203_139166" cx="0" cy="0" r="1" gradientUnits="userSpaceOnUse" gradientTransform="translate(353 1242) rotate(85.2434) scale(337.663)">
<stop stop-color="#D9D9D9"/>
<stop offset="1" stop-color="#737373" stop-opacity="0"/>
</radialGradient>
<radialGradient id="paint9_radial_203_139166" cx="0" cy="0" r="1" gradientUnits="userSpaceOnUse" gradientTransform="translate(867 1756) rotate(85.2434) scale(337.663)">
<stop stop-color="#D9D9D9"/>
<stop offset="1" stop-color="#737373" stop-opacity="0"/>
</radialGradient>
<radialGradient id="paint10_radial_203_139166" cx="0" cy="0" r="1" gradientUnits="userSpaceOnUse" gradientTransform="translate(867 1242) rotate(85.2434) scale(337.663)">
<stop stop-color="#D9D9D9"/>
<stop offset="1" stop-color="#737373" stop-opacity="0"/>
</radialGradient>
<radialGradient id="paint11_radial_203_139166" cx="0" cy="0" r="1" gradientUnits="userSpaceOnUse" gradientTransform="translate(1381 1756) rotate(85.2434) scale(337.663)">
<stop stop-color="#D9D9D9"/>
<stop offset="1" stop-color="#737373" stop-opacity="0"/>
</radialGradient>
<radialGradient id="paint12_radial_203_139166" cx="0" cy="0" r="1" gradientUnits="userSpaceOnUse" gradientTransform="translate(1381 1242) rotate(85.2434) scale(337.663)">
<stop stop-color="#D9D9D9"/>
<stop offset="1" stop-color="#737373" stop-opacity="0"/>
</radialGradient>
</defs>
</svg>
